<svg width="522" height="37" viewBox="0 0 522 37" fill="none" xmlns="http://www.w3.org/2000/svg">
<path d="M22.912 2.304V8.88H9.184V15.984H19.456V22.368H9.184V36H0.976V2.304H22.912ZM51.274 9.216V36H43.066V32.352C42.234 33.536 41.098 34.496 39.658 35.232C38.25 35.936 36.682 36.288 34.954 36.288C32.906 36.288 31.098 35.84 29.53 34.944C27.962 34.016 26.746 32.688 25.882 30.96C25.018 29.232 24.586 27.2 24.586 24.864V9.216H32.746V23.76C32.746 25.552 33.21 26.944 34.138 27.936C35.066 28.928 36.314 29.424 37.882 29.424C39.482 29.424 40.746 28.928 41.674 27.936C42.602 26.944 43.066 25.552 43.066 23.76V9.216H51.274ZM71.0898 8.928C74.2258 8.928 76.7218 9.952 78.5778 12C80.4658 14.016 81.4098 16.8 81.4098 20.352V36H73.2498V21.456C73.2498 19.664 72.7858 18.272 71.8578 17.28C70.9298 16.288 69.6818 15.792 68.1138 15.792C66.5458 15.792 65.2978 16.288 64.3698 17.28C63.4418 18.272 62.9778 19.664 62.9778 21.456V36H54.7698V9.216H62.9778V12.768C63.8098 11.584 64.9298 10.656 66.3378 9.984C67.7458 9.28 69.3298 8.928 71.0898 8.928ZM83.0815 22.56C83.0815 19.808 83.5935 17.392 84.6175 15.312C85.6735 13.232 87.0975 11.632 88.8895 10.512C90.6815 9.392 92.6815 8.832 94.8895 8.832C96.6495 8.832 98.2495 9.2 99.6895 9.936C101.162 10.672 102.314 11.664 103.146 12.912V0.48H111.354V36H103.146V32.16C102.378 33.44 101.274 34.464 99.8335 35.232C98.4255 36 96.7775 36.384 94.8895 36.384C92.6815 36.384 90.6815 35.824 88.8895 34.704C87.0975 33.552 85.6735 31.936 84.6175 29.856C83.5935 27.744 83.0815 25.312 83.0815 22.56ZM103.146 22.608C103.146 20.56 102.57 18.944 101.418 17.76C100.298 16.576 98.9215 15.984 97.2895 15.984C95.6575 15.984 94.2655 16.576 93.1135 17.76C91.9935 18.912 91.4335 20.512 91.4335 22.56C91.4335 24.608 91.9935 26.24 93.1135 27.456C94.2655 28.64 95.6575 29.232 97.2895 29.232C98.9215 29.232 100.298 28.64 101.418 27.456C102.57 26.272 103.146 24.656 103.146 22.608ZM113.26 22.56C113.26 19.808 113.772 17.392 114.796 15.312C115.852 13.232 117.276 11.632 119.068 10.512C120.86 9.392 122.86 8.832 125.068 8.832C126.956 8.832 128.604 9.216 130.012 9.984C131.452 10.752 132.556 11.76 133.324 13.008V9.216H141.532V36H133.324V32.208C132.524 33.456 131.404 34.464 129.964 35.232C128.556 36 126.908 36.384 125.02 36.384C122.844 36.384 120.86 35.824 119.068 34.704C117.276 33.552 115.852 31.936 114.796 29.856C113.772 27.744 113.26 25.312 113.26 22.56ZM133.324 22.608C133.324 20.56 132.748 18.944 131.596 17.76C130.476 16.576 129.1 15.984 127.468 15.984C125.836 15.984 124.444 16.576 123.292 17.76C122.172 18.912 121.612 20.512 121.612 22.56C121.612 24.608 122.172 26.24 123.292 27.456C124.444 28.64 125.836 29.232 127.468 29.232C129.1 29.232 130.476 28.64 131.596 27.456C132.748 26.272 133.324 24.656 133.324 22.608ZM179.246 8.928C182.574 8.928 185.214 9.936 187.166 11.952C189.15 13.968 190.142 16.768 190.142 20.352V36H181.982V21.456C181.982 19.728 181.518 18.4 180.59 17.472C179.694 16.512 178.446 16.032 176.846 16.032C175.246 16.032 173.982 16.512 173.054 17.472C172.158 18.4 171.71 19.728 171.71 21.456V36H163.55V21.456C163.55 19.728 163.086 18.4 162.158 17.472C161.262 16.512 160.014 16.032 158.414 16.032C156.814 16.032 155.55 16.512 154.622 17.472C153.726 18.4 153.278 19.728 153.278 21.456V36H145.07V9.216H153.278V12.576C154.11 11.456 155.198 10.576 156.542 9.936C157.886 9.264 159.406 8.928 161.102 8.928C163.118 8.928 164.91 9.36 166.478 10.224C168.078 11.088 169.326 12.32 170.222 13.92C171.15 12.448 172.414 11.248 174.014 10.32C175.614 9.392 177.358 8.928 179.246 8.928ZM218.73 22.176C218.73 22.944 218.682 23.744 218.586 24.576H200.01C200.138 26.24 200.666 27.52 201.594 28.416C202.554 29.28 203.722 29.712 205.098 29.712C207.146 29.712 208.57 28.848 209.37 27.12H218.106C217.658 28.88 216.842 30.464 215.658 31.872C214.506 33.28 213.05 34.384 211.29 35.184C209.53 35.984 207.562 36.384 205.386 36.384C202.762 36.384 200.426 35.824 198.378 34.704C196.33 33.584 194.73 31.984 193.578 29.904C192.426 27.824 191.85 25.392 191.85 22.608C191.85 19.824 192.41 17.392 193.53 15.312C194.682 13.232 196.282 11.632 198.33 10.512C200.378 9.392 202.73 8.832 205.386 8.832C207.978 8.832 210.282 9.376 212.298 10.464C214.314 11.552 215.882 13.104 217.002 15.12C218.154 17.136 218.73 19.488 218.73 22.176ZM210.33 20.016C210.33 18.608 209.85 17.488 208.89 16.656C207.93 15.824 206.73 15.408 205.29 15.408C203.914 15.408 202.746 15.808 201.786 16.608C200.858 17.408 200.282 18.544 200.058 20.016H210.33ZM236.98 8.928C240.116 8.928 242.612 9.952 244.468 12C246.356 14.016 247.3 16.8 247.3 20.352V36H239.14V21.456C239.14 19.664 238.676 18.272 237.748 17.28C236.82 16.288 235.572 15.792 234.004 15.792C232.436 15.792 231.188 16.288 230.26 17.28C229.332 18.272 228.868 19.664 228.868 21.456V36H220.66V9.216H228.868V12.768C229.7 11.584 230.82 10.656 232.228 9.984C233.636 9.28 235.22 8.928 236.98 8.928ZM265.532 29.04V36H261.356C258.38 36 256.06 35.28 254.396 33.84C252.732 32.368 251.9 29.984 251.9 26.688V16.032H248.636V9.216H251.9V2.688H260.108V9.216H265.484V16.032H260.108V26.784C260.108 27.584 260.3 28.16 260.684 28.512C261.068 28.864 261.708 29.04 262.604 29.04H265.532ZM279.896 36.384C277.272 36.384 274.904 35.824 272.792 34.704C270.712 33.584 269.064 31.984 267.848 29.904C266.664 27.824 266.072 25.392 266.072 22.608C266.072 19.856 266.68 17.44 267.896 15.36C269.112 13.248 270.776 11.632 272.888 10.512C275 9.392 277.368 8.832 279.992 8.832C282.616 8.832 284.984 9.392 287.096 10.512C289.208 11.632 290.872 13.248 292.088 15.36C293.304 17.44 293.912 19.856 293.912 22.608C293.912 25.36 293.288 27.792 292.04 29.904C290.824 31.984 289.144 33.584 287 34.704C284.888 35.824 282.52 36.384 279.896 36.384ZM279.896 29.28C281.464 29.28 282.792 28.704 283.88 27.552C285 26.4 285.56 24.752 285.56 22.608C285.56 20.464 285.016 18.816 283.928 17.664C282.872 16.512 281.56 15.936 279.992 15.936C278.392 15.936 277.064 16.512 276.008 17.664C274.952 18.784 274.424 20.432 274.424 22.608C274.424 24.752 274.936 26.4 275.96 27.552C277.016 28.704 278.328 29.28 279.896 29.28ZM306.763 36.384C304.427 36.384 302.347 35.984 300.523 35.184C298.699 34.384 297.259 33.296 296.203 31.92C295.147 30.512 294.555 28.944 294.427 27.216H302.539C302.635 28.144 303.067 28.896 303.835 29.472C304.603 30.048 305.547 30.336 306.667 30.336C307.691 30.336 308.475 30.144 309.019 29.76C309.595 29.344 309.883 28.816 309.883 28.176C309.883 27.408 309.483 26.848 308.683 26.496C307.883 26.112 306.587 25.696 304.795 25.248C302.875 24.8 301.275 24.336 299.995 23.856C298.715 23.344 297.611 22.56 296.683 21.504C295.755 20.416 295.291 18.96 295.291 17.136C295.291 15.6 295.707 14.208 296.539 12.96C297.403 11.68 298.651 10.672 300.283 9.936C301.947 9.2 303.915 8.832 306.187 8.832C309.547 8.832 312.187 9.664 314.107 11.328C316.059 12.992 317.179 15.2 317.467 17.952H309.883C309.755 17.024 309.339 16.288 308.635 15.744C307.963 15.2 307.067 14.928 305.947 14.928C304.987 14.928 304.251 15.12 303.739 15.504C303.227 15.856 302.971 16.352 302.971 16.992C302.971 17.76 303.371 18.336 304.171 18.72C305.003 19.104 306.283 19.488 308.011 19.872C309.995 20.384 311.611 20.896 312.859 21.408C314.107 21.888 315.195 22.688 316.123 23.808C317.083 24.896 317.579 26.368 317.611 28.224C317.611 29.792 317.163 31.2 316.267 32.448C315.403 33.664 314.139 34.624 312.475 35.328C310.843 36.032 308.939 36.384 306.763 36.384ZM326.372 22.56C326.372 19.808 326.884 17.392 327.908 15.312C328.964 13.232 330.388 11.632 332.18 10.512C333.972 9.392 335.972 8.832 338.18 8.832C339.94 8.832 341.54 9.2 342.98 9.936C344.452 10.672 345.604 11.664 346.436 12.912V0.48H354.644V36H346.436V32.16C345.668 33.44 344.564 34.464 343.124 35.232C341.716 36 340.068 36.384 338.18 36.384C335.972 36.384 333.972 35.824 332.18 34.704C330.388 33.552 328.964 31.936 327.908 29.856C326.884 27.744 326.372 25.312 326.372 22.56ZM346.436 22.608C346.436 20.56 345.86 18.944 344.708 17.76C343.588 16.576 342.212 15.984 340.58 15.984C338.948 15.984 337.556 16.576 336.404 17.76C335.284 18.912 334.724 20.512 334.724 22.56C334.724 24.608 335.284 26.24 336.404 27.456C337.556 28.64 338.948 29.232 340.58 29.232C342.212 29.232 343.588 28.64 344.708 27.456C345.86 26.272 346.436 24.656 346.436 22.608ZM370.374 36.384C367.75 36.384 365.382 35.824 363.27 34.704C361.19 33.584 359.542 31.984 358.326 29.904C357.142 27.824 356.55 25.392 356.55 22.608C356.55 19.856 357.158 17.44 358.374 15.36C359.59 13.248 361.254 11.632 363.366 10.512C365.478 9.392 367.846 8.832 370.47 8.832C373.094 8.832 375.462 9.392 377.574 10.512C379.686 11.632 381.35 13.248 382.566 15.36C383.782 17.44 384.39 19.856 384.39 22.608C384.39 25.36 383.766 27.792 382.518 29.904C381.302 31.984 379.622 33.584 377.478 34.704C375.366 35.824 372.998 36.384 370.374 36.384ZM370.374 29.28C371.942 29.28 373.27 28.704 374.358 27.552C375.478 26.4 376.038 24.752 376.038 22.608C376.038 20.464 375.494 18.816 374.406 17.664C373.35 16.512 372.038 15.936 370.47 15.936C368.87 15.936 367.542 16.512 366.486 17.664C365.43 18.784 364.902 20.432 364.902 22.608C364.902 24.752 365.414 26.4 366.438 27.552C367.494 28.704 368.806 29.28 370.374 29.28ZM411.301 36L404.293 23.28H402.325V36H394.117V2.304H407.893C410.549 2.304 412.805 2.768 414.661 3.696C416.549 4.624 417.957 5.904 418.885 7.536C419.813 9.136 420.277 10.928 420.277 12.912C420.277 15.152 419.637 17.152 418.357 18.912C417.109 20.672 415.253 21.92 412.789 22.656L420.565 36H411.301ZM402.325 17.472H407.413C408.917 17.472 410.037 17.104 410.773 16.368C411.541 15.632 411.925 14.592 411.925 13.248C411.925 11.968 411.541 10.96 410.773 10.224C410.037 9.488 408.917 9.12 407.413 9.12H402.325V17.472ZM448.277 22.176C448.277 22.944 448.229 23.744 448.133 24.576H429.557C429.685 26.24 430.213 27.52 431.141 28.416C432.101 29.28 433.269 29.712 434.645 29.712C436.693 29.712 438.117 28.848 438.917 27.12H447.653C447.205 28.88 446.389 30.464 445.205 31.872C444.053 33.28 442.597 34.384 440.837 35.184C439.077 35.984 437.109 36.384 434.933 36.384C432.309 36.384 429.973 35.824 427.925 34.704C425.877 33.584 424.277 31.984 423.125 29.904C421.973 27.824 421.397 25.392 421.397 22.608C421.397 19.824 421.957 17.392 423.077 15.312C424.229 13.232 425.829 11.632 427.877 10.512C429.925 9.392 432.277 8.832 434.933 8.832C437.525 8.832 439.829 9.376 441.845 10.464C443.861 11.552 445.429 13.104 446.549 15.12C447.701 17.136 448.277 19.488 448.277 22.176ZM439.877 20.016C439.877 18.608 439.397 17.488 438.437 16.656C437.477 15.824 436.277 15.408 434.837 15.408C433.461 15.408 432.293 15.808 431.333 16.608C430.405 17.408 429.829 18.544 429.605 20.016H439.877ZM448.575 22.56C448.575 19.808 449.087 17.392 450.111 15.312C451.167 13.232 452.591 11.632 454.383 10.512C456.175 9.392 458.175 8.832 460.383 8.832C462.271 8.832 463.919 9.216 465.327 9.984C466.767 10.752 467.871 11.76 468.639 13.008V9.216H476.847V36H468.639V32.208C467.839 33.456 466.719 34.464 465.279 35.232C463.871 36 462.223 36.384 460.335 36.384C458.159 36.384 456.175 35.824 454.383 34.704C452.591 33.552 451.167 31.936 450.111 29.856C449.087 27.744 448.575 25.312 448.575 22.56ZM468.639 22.608C468.639 20.56 468.063 18.944 466.911 17.76C465.791 16.576 464.415 15.984 462.783 15.984C461.151 15.984 459.759 16.576 458.607 17.76C457.487 18.912 456.927 20.512 456.927 22.56C456.927 24.608 457.487 26.24 458.607 27.456C459.759 28.64 461.151 29.232 462.783 29.232C464.415 29.232 465.791 28.64 466.911 27.456C468.063 26.272 468.639 24.656 468.639 22.608ZM478.753 22.608C478.753 19.824 479.313 17.392 480.433 15.312C481.585 13.232 483.169 11.632 485.185 10.512C487.233 9.392 489.569 8.832 492.193 8.832C495.553 8.832 498.353 9.712 500.593 11.472C502.865 13.232 504.353 15.712 505.057 18.912H496.321C495.585 16.864 494.161 15.84 492.049 15.84C490.545 15.84 489.345 16.432 488.449 17.616C487.553 18.768 487.105 20.432 487.105 22.608C487.105 24.784 487.553 26.464 488.449 27.648C489.345 28.8 490.545 29.376 492.049 29.376C494.161 29.376 495.585 28.352 496.321 26.304H505.057C504.353 29.44 502.865 31.904 500.593 33.696C498.321 35.488 495.521 36.384 492.193 36.384C489.569 36.384 487.233 35.824 485.185 34.704C483.169 33.584 481.585 31.984 480.433 29.904C479.313 27.824 478.753 25.392 478.753 22.608ZM521.976 29.04V36H517.8C514.824 36 512.504 35.28 510.84 33.84C509.176 32.368 508.344 29.984 508.344 26.688V16.032H505.08V9.216H508.344V2.688H516.552V9.216H521.928V16.032H516.552V26.784C516.552 27.584 516.744 28.16 517.128 28.512C517.512 28.864 518.152 29.04 519.048 29.04H521.976Z" fill="#FF57B2"/>
</svg>
